<svg width="22" height="22" viewBox="0 0 22 22" fill="none" xmlns="http://www.w3.org/2000/svg">
<path d="M11.0001 0.25C5.07261 0.25 0.250122 5.07249 0.250122 11C0.250122 16.9275 5.07261 21.75 11.0001 21.75C16.9276 21.75 21.7501 16.9275 21.7501 11C21.7501 5.07249 16.9276 0.25 11.0001 0.25ZM12.8751 15.125H9.12511V6.87499H12.8751V15.125Z" fill="black"/>
<path d="M11.0001 0.25C5.07261 0.25 0.250122 5.07249 0.250122 11C0.250122 16.9275 5.07261 21.75 11.0001 21.75C16.9276 21.75 21.7501 16.9275 21.7501 11C21.7501 5.07249 16.9276 0.25 11.0001 0.25ZM12.8751 15.125H9.12511V6.87499H12.8751V15.125Z" fill="url(#paint0_linear_163850_146)"/>
<defs>
<linearGradient id="paint0_linear_163850_146" x1="11.0001" y1="0.25" x2="11.0001" y2="21.75" gradientUnits="userSpaceOnUse">
<stop stop-color="#EF8080"/>
<stop offset="1" stop-color="#F0145A"/>
</linearGradient>
</defs>
</svg>
